<svg width="41" height="41" fill="none" xmlns="http://www.w3.org/2000/svg"><g clip-path="url('#clip0_303_237')" fill="#ED8B00"><path d="M15.25 40.504H2.75a2.5 2.5 0 0 1-2.5-2.5v-35a2.5 2.5 0 0 1 2.5-2.5h21.667a2.5 2.5 0 0 1 2.5 2.5H25.25a.834.834 0 0 0-.833-.834H2.75a.834.834 0 0 0-.833.834v35c0 .46.373.833.833.833h12.5v1.667Z"/><path d="M11.084 4.67h5v1.667h-5V4.67ZM24.417 40.504h-3.334a5.84 5.84 0 0 1-5.833-5.834V21.337a2.5 2.5 0 0 1 2.917-2.466 2.57 2.57 0 0 1 2.083 2.555v8.244h-1.667v-8.244a.902.902 0 0 0-.687-.91.834.834 0 0 0-.98.821V34.67a4.172 4.172 0 0 0 4.167 4.167h3.334a4.172 4.172 0 0 0 4.166-4.167v-5h1.667v5a5.84 5.84 0 0 1-5.833 5.834Z"/><path d="M23.584 29.67h-1.667v-1.666a.833.833 0 1 0-1.667 0v1.666h-1.666v-1.666a2.5 2.5 0 1 1 5 0v1.666Z"/><path d="M26.916 29.67H25.25v-1.666a.834.834 0 0 0-1.667 0v1.666h-1.666v-1.666a2.5 2.5 0 0 1 5 0v1.666Z"/><path d="M30.25 29.67h-1.667v-1.666a.834.834 0 0 0-1.666 0v1.666H25.25v-1.666a2.5 2.5 0 0 1 5 0v1.666ZM11.916 15.504h-5a.833.833 0 0 1-.833-.834v-5c0-.46.373-.833.833-.833h5c.46 0 .834.373.834.833v5c0 .46-.373.834-.834.834ZM7.75 13.837h3.333v-3.333H7.75v3.333ZM20.25 15.504h-5a.834.834 0 0 1-.834-.834v-5c0-.46.374-.833.834-.833h5c.46 0 .833.373.833.833v5c0 .46-.373.834-.833.834Zm-4.167-1.667h3.334v-3.333h-3.334v3.333ZM11.916 23.837h-5a.833.833 0 0 1-.833-.833v-5c0-.46.373-.834.833-.834h5c.46 0 .834.374.834.834v5c0 .46-.373.833-.834.833ZM7.75 22.17h3.333v-3.333H7.75v3.333ZM11.916 32.17h-5a.833.833 0 0 1-.833-.833v-5c0-.46.373-.833.833-.833h5c.46 0 .834.373.834.833v5c0 .46-.373.833-.834.833ZM7.75 30.504h3.333V27.17H7.75v3.334ZM37.75 23.004h-10a2.5 2.5 0 0 1-2.5-2.5v-.834h-2.5a.833.833 0 0 1-.59-1.422l3.09-3.09V7.17a2.5 2.5 0 0 1 2.5-2.5h10a2.5 2.5 0 0 1 2.5 2.5v13.334a2.5 2.5 0 0 1-2.5 2.5Zm-12.988-5h1.322c.46 0 .833.373.833.833v1.667c0 .46.373.833.833.833h10c.46 0 .834-.373.834-.833V7.17a.833.833 0 0 0-.834-.833h-10a.833.833 0 0 0-.833.833v8.334c0 .22-.088.433-.245.59l-1.91 1.91Z"/><path d="M29.416 8.004h6.667V9.67h-6.666V8.004ZM29.416 11.337h6.667v1.667h-6.666v-1.667ZM29.416 14.67h6.667v1.667h-6.666V14.67ZM29.416 18.004h6.667v1.666h-6.666v-1.666Z"/></g><defs><clipPath id="clip0_303_237"><path fill="#fff" transform="translate(.25 .504)" d="M0 0h40v40H0z"/></clipPath></defs></svg>