<svg width="56" height="57" fill="none" xmlns="http://www.w3.org/2000/svg"><g clip-path="url('#clip0_135_404')" fill="#ED8B00"><path d="M29.75.075c1.026.14 2.055.254 3.075.426C43.95 2.37 52.978 11.04 55.367 22.136c2.844 13.215-4.12 26.592-16.535 31.76-16.08 6.693-34.23-2.63-38.13-19.605-.296-1.29-.405-2.624-.604-3.937-.027-.178-.066-.355-.1-.532v-3.5c.033-.175.072-.35.097-.526.148-1.063.246-2.136.445-3.188C2.645 11.437 11.936 2.347 23.119.505c1.039-.171 2.088-.288 3.13-.43h3.501Zm25.143 28.019c.024-14.71-12.028-26.842-26.622-26.946C13.344 1.043 1.114 13.14 1.087 27.959c-.028 14.869 12.04 26.994 26.884 27 14.792.006 26.897-12.074 26.922-26.864v-.001Z"/><path d="M5.446 28.064C5.435 15.65 15.502 5.574 27.97 5.52c12.392-.054 22.61 10.145 22.584 22.546-.025 12.443-10.216 22.622-22.588 22.557-12.461-.066-22.51-10.132-22.522-22.558h.002ZM16.785 9.778c-2.934 1.832-5.267 4.161-7.077 7.077.703.411 1.377.803 2.049 1.198.392.23.816.424 1.158.715.156.133.251.493.188.69-.102.317-.418.374-.728.208-.225-.12-.445-.248-.666-.376l-2.563-1.482c-1.643 3.073-2.528 6.267-2.595 9.72 1.254 0 2.42.003 3.585-.003.376 0 .673.115.675.533.002.407-.273.558-.657.555-.583-.005-1.166 0-1.75 0H6.54c.107 3.475.964 6.654 2.598 9.683.201-.107.376-.196.545-.292.87-.496 1.74-.992 2.608-1.493.305-.176.597-.218.806.12.223.357.054.622-.262.821-.138.088-.284.164-.426.246l-2.712 1.565c1.822 2.935 4.163 5.279 7.084 7.092l.516-.884c.448-.771.886-1.548 1.348-2.312.182-.301.463-.427.79-.215.291.19.325.464.154.763-.08.142-.16.285-.243.427l-1.604 2.778c3.05 1.653 6.247 2.519 9.714 2.608v-.556c0-1.039-.003-2.078.003-3.116.002-.35.142-.618.537-.616.387.002.537.26.545.614.008.327.002.656.003.984v2.693c3.48-.108 6.668-.959 9.684-2.6-.137-.248-.24-.44-.346-.627-.485-.855-.97-1.71-1.46-2.563-.181-.318-.162-.606.164-.8.334-.203.592-.045.785.247.09.137.164.282.246.425l1.582 2.764c2.936-1.832 5.284-4.17 7.089-7.088-.13-.085-.231-.16-.34-.223-.916-.525-1.833-1.049-2.75-1.572-.34-.194-.56-.452-.325-.842.216-.36.533-.313.855-.123.392.23.789.454 1.185.678.64.364 1.283.726 1.948 1.102 1.638-3.066 2.509-6.247 2.589-9.689-1.228 0-2.374-.003-3.52.001-.4.001-.765-.067-.76-.56.003-.466.358-.529.734-.527.62.004 1.24 0 1.86 0h1.698c-.11-3.49-.961-6.681-2.61-9.706-.417.237-.78.44-1.141.648-.695.398-1.387.802-2.086 1.194-.3.169-.579.109-.76-.182-.191-.304-.063-.56.205-.751.133-.095.281-.169.422-.251l2.8-1.624c-1.83-2.935-4.17-5.275-7.09-7.077-.127.21-.235.377-.333.549-.491.851-.978 1.706-1.471 2.556-.179.307-.408.542-.795.318-.364-.213-.357-.512-.156-.84.094-.156.183-.315.273-.474.5-.881 1-1.763 1.516-2.676-3.053-1.635-6.238-2.506-9.692-2.589v.659c0 .984-.002 1.968 0 2.952.001.386-.154.656-.561.652-.383-.003-.528-.268-.526-.626V6.617c-3.475.092-6.665.962-9.702 2.598.096.18.176.34.265.493.51.883 1.018 1.766 1.532 2.647.208.356.206.66-.2.864-.376.189-.581-.049-.748-.333-.6-1.019-1.194-2.04-1.819-3.11v.002Z"/><path d="M31.706 27.529h4.959c.145 0 .325-.052.43.014.204.13.472.3.522.502.085.332-.176.544-.512.558-.508.023-1.019.01-1.53.01-1.166 0-2.33.007-3.497-.004-.278-.003-.402.067-.484.363-.518 1.848-2.137 2.978-3.968 2.806-1.74-.165-3.184-1.624-3.336-3.372-.162-1.86.996-3.45 2.885-3.96.086-.024.167-.063.28-.106v-6.228c0-.255-.066-.536.02-.758.088-.232.294-.535.5-.58.348-.076.56.206.564.57.007 1.02.004 2.039.004 3.06v3.958c1.705.385 2.77 1.409 3.162 3.164v.003Zm-3.674-2.083c-1.486-.011-2.654 1.124-2.664 2.589-.01 1.478 1.139 2.658 2.595 2.669 1.473.01 2.652-1.14 2.663-2.6.011-1.482-1.125-2.646-2.594-2.657v-.001Z"/></g><defs><clipPath id="clip0_135_404"><path fill="#fff" transform="translate(0 .075)" d="M0 0h56v56H0z"/></clipPath></defs></svg>