<svg width="56" height="57" fill="none" xmlns="http://www.w3.org/2000/svg"><g clip-path="url('#clip0_135_419')" fill="#ED8B00"><path d="M10.041 56.075c-.073-.102-.208-.201-.211-.306-.032-1.208-.27-2.453.494-3.547.67-.959 1.613-1.355 2.763-1.351 3.122.01 6.242.003 9.364.003h.681v-10.85h-.675c-6.243 0-12.487-.034-18.73.023-1.837.016-2.75-1.217-2.745-2.755.04-11.502.021-23.002.021-34.503C1.004.953 1.876.075 3.7.075h48.619c1.823 0 2.7.88 2.7 2.713v34.556c0 1.802-.873 2.68-2.67 2.68H32.886v10.813c.212.012.42.034.628.034 3.103.002 6.206 0 9.31.002 2.173.002 3.402 1.237 3.41 3.422 0 .365.03.734-.011 1.093-.027.236-.16.458-.245.687H10.041Zm17.97-16.953h24.23c1.403 0 1.87-.464 1.87-1.857V2.868c0-1.417-.455-1.883-1.844-1.883H3.75c-1.37 0-1.842.469-1.842 1.83v34.451c0 1.393.467 1.855 1.871 1.855h24.23ZM10.726 55.124h34.603c0-.221-.015-.403.002-.583.17-1.75-.901-2.79-2.71-2.77-6.185.066-12.372.033-18.558.035-3.7 0-7.401-.011-11.102-.008-1.158 0-2.049.688-2.221 1.765-.08.496-.013 1.014-.013 1.561h-.001Zm21.183-4.304V40.097H24.12V50.82h7.788Z"/><path d="M27.973 37.276H4.667c-.899 0-.933-.033-.933-.91V3.717c0-.833.068-.9.9-.9H51.41c.798 0 .88.079.88.867v32.757c0 .768-.068.834-.847.834h-23.47Zm23.367-.93V3.78H4.692v32.567H51.34Z"/><path d="M44.156 14.527c-2.415 2.425-4.791 4.805-7.153 7.2-.107.11-.142.389-.087.544.428 1.217-.107 2.446-1.27 2.856-1.16.41-2.36-.213-2.732-1.454-.092-.308-.244-.38-.53-.414-2.863-.341-5.725-.69-8.585-1.057-.449-.058-.739-.025-1.01.43-.518.865-1.559 1.139-2.537.747-.26-.104-.41-.082-.607.118-2.29 2.313-4.583 4.623-6.893 6.917-.25.247-.153.424-.064.667.416 1.127-.158 2.365-1.268 2.76a2.13 2.13 0 0 1-2.743-1.381c-.352-1.137.282-2.374 1.444-2.657.432-.105.934-.037 1.377.068.28.067.437.09.652-.128A1506.92 1506.92 0 0 1 19 22.86c.196-.195.225-.339.118-.608-.473-1.193.095-2.434 1.26-2.84 1.163-.407 2.324.224 2.75 1.457.06.17.291.373.465.395 2.985.385 5.973.749 8.963 1.092.166.02.43-.135.528-.287.626-.968 1.627-1.34 2.682-.903.297.122.445.049.644-.152 2.252-2.274 4.51-4.542 6.773-6.805.208-.208.31-.365.175-.695a2.09 2.09 0 0 1 .792-2.59 2.105 2.105 0 0 1 2.688.313c.69.722.786 1.842.228 2.667-.574.85-1.612 1.158-2.597.766-.1-.04-.195-.087-.316-.141l.003-.002Zm-.045-1.816c0 .668.545 1.22 1.204 1.22.656 0 1.21-.561 1.209-1.222 0-.662-.553-1.217-1.213-1.217-.669 0-1.2.54-1.2 1.219ZM11.91 31.819c-.003-.669-.552-1.219-1.209-1.213a1.23 1.23 0 0 0-1.202 1.227c.003.67.544 1.203 1.216 1.201a1.182 1.182 0 0 0 1.194-1.214l.001-.001Zm10.353-10.443a1.195 1.195 0 0 0-1.184-1.173 1.232 1.232 0 0 0-1.224 1.205 1.22 1.22 0 0 0 1.203 1.217c.708.007 1.21-.516 1.206-1.25v.001Zm11.503 1.691c-.031.678.469 1.237 1.137 1.27.643.032 1.23-.51 1.263-1.167.034-.648-.508-1.233-1.163-1.26-.69-.026-1.206.456-1.239 1.157h.002Z"/></g><defs><clipPath id="clip0_135_419"><path fill="#fff" transform="translate(.982 .075)" d="M0 0h54.035v56H0z"/></clipPath></defs></svg>