<svg width="46" height="57" fill="none" xmlns="http://www.w3.org/2000/svg"><g clip-path="url('#clip0_135_397')" fill="#ED8B00"><path d="M5.65 5.175V1.079C5.652.249 5.827.076 6.68.075c9.176 0 18.35-.005 27.524.02.354 0 .795.183 1.047.43 3.285 3.213 6.551 6.445 9.795 9.697.249.25.435.685.435 1.035.021 12.9.019 25.798.018 38.697 0 .845-.178 1.02-1.012 1.021-1.36.003-2.719 0-4.138 0v4.094c0 .828-.179 1.005-1.03 1.005H1.556c-.877 0-1.055-.177-1.055-1.049L.5 6.192c0-.843.175-1.016 1.014-1.017 1.359-.002 2.719 0 4.136 0ZM44.168 49.67V11.525H35.11c-1.108 0-1.175-.063-1.175-1.136V1.403H6.995V49.67h37.173Zm-5.144 1.307H6.782c-1.017 0-1.13-.114-1.13-1.134V6.504H1.836v48.25h37.187v-3.777Zm-3.796-40.748h7.68l-7.68-7.602v7.602Z"/><path d="M25.133 26.63h.716c2.007 0 4.015-.003 6.023 0 .784.002 1.006.244.958 1.011-.262 4.237-3.49 7.544-7.694 7.884-4.156.336-7.908-2.444-8.828-6.538-1.117-4.974 2.794-9.897 7.93-9.983.656-.01.89.213.892.902.007 1.968.002 3.935.002 5.902v.821h.001Zm-1.295-6.33c-3.777.324-6.545 3.557-6.382 7.363.155 3.607 3.313 6.564 7.023 6.573 3.646.01 6.858-2.855 7.032-6.325h-.594c-1.445 0-2.89.021-4.333-.008-.847-.017-1.693-.116-2.54-.178-.068-.835-.182-1.67-.197-2.505-.032-1.626-.01-3.252-.01-4.92h.001Z"/><path d="M30.924 25.375c-1.204 0-2.408.006-3.612-.002-.693-.005-.908-.212-.91-.89a1183.99 1183.99 0 0 1 0-7.152c.003-.676.228-.873.92-.867 4.27.037 8.029 3.753 8.079 7.985.008.709-.194.919-.926.924-1.184.007-2.368.002-3.552 0l.001.002Zm3.145-1.303c-.043-3.127-3.366-6.394-6.329-6.272v6.272h6.33Z"/></g><defs><clipPath id="clip0_135_397"><path fill="#fff" transform="translate(.5 .075)" d="M0 0h45v56H0z"/></clipPath></defs></svg>