<svg width="41" height="41" fill="none" xmlns="http://www.w3.org/2000/svg"><g clip-path="url('#clip0_303_233')" fill="#ED8B00"><path d="M20.75 5.17a10.666 10.666 0 1 0 10.667 10.667A10.679 10.679 0 0 0 20.75 5.17Zm0 20a9.333 9.333 0 1 1 9.333-9.333 9.344 9.344 0 0 1-9.333 9.334Z"/><path d="m23.336 11.756-5.253 5.255a2.047 2.047 0 0 0-2.745.079 2 2 0 0 0 0 2.828l1.333 1.333a2.02 2.02 0 0 0 2.829 0l6.667-6.667a2 2 0 0 0-2.828-2.828h-.003Zm1.885 1.886-6.666 6.666a.68.68 0 0 1-.943 0l-1.333-1.333a.666.666 0 0 1 .942-.943l.391.391a.667.667 0 0 0 .943 0l5.724-5.724a.667.667 0 0 1 .942.943Z"/><path d="m35.07 13.256-1.383-.552a13.17 13.17 0 0 0-1.574-3.796l.585-1.37a1.496 1.496 0 0 0-.215-1.568c-.243-.292-.522-.6-.894-.98a16.177 16.177 0 0 0-.961-.876 1.503 1.503 0 0 0-1.575-.224l-1.371.586a13.168 13.168 0 0 0-3.799-1.572l-.553-1.386a1.527 1.527 0 0 0-1.256-.955 14.8 14.8 0 0 0-2.64 0 1.533 1.533 0 0 0-1.267.955l-.55 1.386c-1.34.323-2.62.854-3.796 1.574l-1.371-.589a1.494 1.494 0 0 0-1.567.215c-.294.243-.6.523-.981.893-.359.368-.639.676-.874.961a1.499 1.499 0 0 0-.226 1.576l.586 1.371a13.207 13.207 0 0 0-1.575 3.799l-1.386.554a1.525 1.525 0 0 0-.951 1.256 14.79 14.79 0 0 0 0 2.64 1.53 1.53 0 0 0 .955 1.266l1.382.553c.324 1.34.855 2.62 1.575 3.795l-.585 1.371a1.495 1.495 0 0 0 .214 1.565c.243.294.523.6.894.981.367.359.675.639.96.875.024.02.052.03.077.048L7.583 35.35a2.054 2.054 0 0 0 1.894 2.852h2.86a.274.274 0 0 1 .196.08l1.626 1.622a2.06 2.06 0 0 0 3.338-.624l3.253-7.165L24 39.268a2.053 2.053 0 0 0 1.883 1.236c.546 0 1.069-.215 1.455-.6l1.629-1.622a.276.276 0 0 1 .194-.078h2.86a2.053 2.053 0 0 0 1.892-2.859l-3.368-7.732c.023-.017.051-.027.073-.045.293-.244.6-.523.981-.894.359-.368.638-.676.875-.962a1.5 1.5 0 0 0 .225-1.574l-.586-1.372a13.168 13.168 0 0 0 1.574-3.796l1.385-.553a1.528 1.528 0 0 0 .952-1.257c.042-.44.062-.881.06-1.323.002-.44-.018-.881-.06-1.32a1.534 1.534 0 0 0-.954-1.261Zm-18.791 25.48a.726.726 0 0 1-1.179.22l-1.625-1.618a1.617 1.617 0 0 0-1.138-.466h-2.86a.714.714 0 0 1-.6-.324.702.702 0 0 1-.067-.67l3.501-8.054c.046-.015.093-.019.138-.038l1.372-.586a13.174 13.174 0 0 0 3.796 1.574l.553 1.386a1.529 1.529 0 0 0 1.257.951c.098.01.204.015.306.022l-3.454 7.602Zm16.41-2.868a.72.72 0 0 1-.666 1h-2.86c-.424.001-.831.169-1.133.467l-1.628 1.621a.726.726 0 0 1-1.182-.23l-3.449-7.594c.1-.008.2-.012.299-.022a1.533 1.533 0 0 0 1.267-.954l.552-1.384c1.34-.322 2.62-.853 3.796-1.574l1.37.586c.043.018.088.022.134.036l3.5 8.048Zm2.008-18.83a.194.194 0 0 1-.122.144l-1.708.683a.671.671 0 0 0-.405.48 11.878 11.878 0 0 1-1.659 4 .666.666 0 0 0-.053.625l.723 1.694a.183.183 0 0 1-.019.193 12.981 12.981 0 0 1-1.697 1.692.184.184 0 0 1-.186.013l-1.688-.725a.665.665 0 0 0-.624.054 11.88 11.88 0 0 1-4 1.659.671.671 0 0 0-.48.405l-.682 1.706a.195.195 0 0 1-.154.124c-.395.038-.792.055-1.189.052h-.008c-.399.002-.797-.015-1.194-.053a.193.193 0 0 1-.145-.122l-.683-1.708a.666.666 0 0 0-.48-.405 11.862 11.862 0 0 1-4-1.659.667.667 0 0 0-.627-.053l-1.694.723a.18.18 0 0 1-.192-.019c-.267-.22-.548-.477-.877-.8-.333-.34-.59-.623-.816-.897a.183.183 0 0 1-.012-.185l.724-1.689a.665.665 0 0 0-.054-.624 11.88 11.88 0 0 1-1.66-4 .667.667 0 0 0-.404-.48l-1.705-.684a.2.2 0 0 1-.124-.154 11.98 11.98 0 0 1-.053-1.19c0-.448.017-.838.053-1.2a.194.194 0 0 1 .122-.146l1.708-.682a.667.667 0 0 0 .404-.48 11.88 11.88 0 0 1 1.66-4 .667.667 0 0 0 .053-.626l-.722-1.692a.184.184 0 0 1 .02-.193c.219-.267.475-.547.8-.877.34-.333.623-.589.897-.815a.179.179 0 0 1 .184-.012l1.688.722a.666.666 0 0 0 .624-.054 11.863 11.863 0 0 1 4-1.659.667.667 0 0 0 .48-.405l.682-1.705a.195.195 0 0 1 .154-.125c.795-.07 1.594-.07 2.388 0a.193.193 0 0 1 .146.121l.682 1.708a.67.67 0 0 0 .481.406 11.88 11.88 0 0 1 4 1.658.667.667 0 0 0 .63.055l1.693-.723a.185.185 0 0 1 .193.02 12.973 12.973 0 0 1 1.692 1.696.182.182 0 0 1 .013.186l-.725 1.688a.666.666 0 0 0 .054.624 11.88 11.88 0 0 1 1.659 4 .67.67 0 0 0 .405.48l1.706.682a.195.195 0 0 1 .123.146v.008c.038.397.056.795.053 1.193.003.4-.015.801-.053 1.2Z"/></g><defs><clipPath id="clip0_303_233"><path fill="#fff" transform="translate(.75 .504)" d="M0 0h40v40H0z"/></clipPath></defs></svg>