<svg width="56" height="57" fill="none" xmlns="http://www.w3.org/2000/svg"><g clip-path="url('#clip0_135_410')" fill="#ED8B00"><path d="M32.965 37.912a18.151 18.151 0 0 1-24.645-4.29c-5.27-7.13-4.522-17.247 1.8-23.519 6.36-6.311 16.472-7.015 23.55-1.693 7.527 5.66 9.612 16.358 4.185 24.607.981.833 1.967 1.672 2.955 2.508 4.361 3.688 8.702 7.4 13.092 11.054 2.394 1.992 2.64 5.011 1.24 7.134-1.949 2.952-6.095 3.181-8.435.445-2.403-2.811-4.775-5.65-7.16-8.477-2.066-2.448-4.132-4.898-6.2-7.346-.116-.138-.242-.268-.382-.422v-.001ZM5.966 22.917c.018 9.318 7.572 16.871 16.885 16.882 9.334.01 16.914-7.578 16.897-16.916-.016-9.35-7.604-16.919-16.93-16.886-9.309.034-16.87 7.624-16.852 16.92Zm28.219 14.448-.226-.133c.09.113.178.226.272.335l7.575 8.979c1.935 2.294 3.864 4.592 5.809 6.878 1.209 1.421 3.04 1.862 4.715 1.166 1.648-.684 2.613-2.278 2.489-4.122-.093-1.364-.863-2.313-1.866-3.158-5.123-4.311-10.23-8.64-15.343-12.964-.147-.124-.302-.238-.453-.357l.168.246-3.14 3.13ZM1.18 1.256V8.672c0 .128.004.257-.003.384-.023.393-.174.692-.622.67-.41-.021-.55-.304-.55-.68C.002 6.3.004 3.554 0 .808 0 .293.267.083.752.083h8.12c.41 0 .77.117.768.583-.003.496-.378.594-.81.593-2.323-.007-4.645-.003-6.966-.003h-.685ZM44.729 1.256h-7.43c-.166 0-.373.06-.485-.019-.214-.149-.49-.36-.52-.576-.023-.16.286-.385.474-.552.065-.057.211-.025.321-.025 2.652 0 5.303-.003 7.954 0 .697 0 .862.175.863.886.002 2.637.001 5.273 0 7.909 0 .145.036.34-.04.426-.154.173-.367.383-.567.396-.166.01-.402-.209-.509-.385-.092-.153-.058-.39-.058-.589-.003-2.27-.002-4.54-.002-6.81v-.661h-.001ZM1.18 44.878h7.465c.183 0 .407-.051.538.035.19.124.43.351.43.536 0 .185-.24.4-.422.546-.093.075-.283.035-.43.035-2.617 0-5.233.002-7.85 0-.766 0-.908-.142-.908-.89-.002-2.638.003-5.276-.003-7.913 0-.42.055-.792.569-.834.398-.033.607.267.608.856.003 2.308.001 4.617.001 6.925v.704h.001Z"/><path d="M22.939 14.857c4.219.183 7.697 1.89 10.637 4.79.714.704 1.334 1.505 1.994 2.264.246.283.285.581.046.895-2.41 3.176-5.367 5.61-9.31 6.577-4.772 1.17-9.027-.04-12.745-3.138-1.17-.974-2.132-2.201-3.185-3.317-.288-.305-.327-.62-.053-.98 2.311-3.027 5.126-5.374 8.857-6.407 1.223-.338 2.505-.463 3.759-.685v.001ZM34.433 22.4c-6.55-8.629-17.089-7.996-22.946.037 6.312 8.258 16.59 8.299 22.946-.037Z"/><path d="M27.91 22.404c0 2.74-2.207 4.95-4.947 4.956A4.948 4.948 0 0 1 18 22.42c-.008-2.76 2.227-5.004 4.973-4.993 2.726.011 4.936 2.24 4.936 4.977Zm-4.977-3.793c-2.099.008-3.81 1.737-3.782 3.823.027 2.073 1.733 3.767 3.795 3.77 2.088.004 3.815-1.724 3.808-3.81a3.793 3.793 0 0 0-3.82-3.783Z"/></g><defs><clipPath id="clip0_135_410"><path fill="#fff" transform="translate(0 .075)" d="M0 0h56v56H0z"/></clipPath></defs></svg>