<svg width="98" height="57" fill="none" xmlns="http://www.w3.org/2000/svg"><path d="M10.443 32.134c-2.161-13.3 11.99-24.396 24.992-17.088.152-.328.304-.648.45-.972C40.112 4.706 49.853-.934 59.803.225c10.302 1.201 18.518 8.818 20.52 19.073.13.665.367.865 1.015.92 8.376.7 15.368 7.863 15.977 16.328.646 9.008-5.138 17.108-13.672 19.029-1.479.332-3.03.476-4.548.478-21.995.03-43.993.026-65.988.016C6.656 56.065 1.829 52.072.8 45.949-.226 39.844 3.68 33.824 9.622 32.351c.256-.063.513-.133.823-.215l-.002-.002ZM46.504 53.29c10.785 0 21.57.014 32.354-.018 1.386-.004 2.811-.1 4.156-.422 7.44-1.772 12.255-8.702 11.505-16.425-.727-7.475-6.981-13.25-14.657-13.533-1.59-.06-1.806-.302-2.075-1.935-1.326-8.086-5.718-13.825-13.285-16.67-7.643-2.877-14.738-1.419-20.967 3.941-2.851 2.453-4.78 5.573-5.953 9.174-.452 1.39-1.332 1.661-2.529.835-.138-.095-.27-.197-.406-.294-4.512-3.178-10.678-3.245-15.334-.168-4.674 3.089-7.075 8.803-6.005 14.29.408 2.093.222 2.369-1.857 2.751-6.39 1.173-9.862 7.44-7.177 13.122 1.759 3.723 4.846 5.364 8.878 5.36 11.117-.014 22.235-.006 33.352-.006v-.002Z" fill="#ED8B00"/></svg>