<svg width="53" height="41" fill="none" xmlns="http://www.w3.org/2000/svg"><path d="M4.598 9.407h8.07a.772.772 0 0 0 .765-.78c0-.43-.343-.779-.765-.779h-8.07a.772.772 0 0 0-.765.78c0 .43.342.78.765.78ZM12.391 13.159H9.203a.772.772 0 0 0-.765.78c0 .43.343.779.765.779h3.188a.772.772 0 0 0 .765-.78c0-.43-.342-.779-.765-.779ZM1.397 18.563h7.806a.772.772 0 0 0 .765-.779c0-.43-.342-.78-.765-.78H1.397a.772.772 0 0 0-.765.78c0 .43.343.78.765.78ZM13.433 32.38c0-.43-.343-.78-.765-.78h-8.07a.772.772 0 0 0-.765.78c0 .43.342.78.765.78h8.07a.772.772 0 0 0 .765-.78ZM12.391 26.29H9.203a.772.772 0 0 0-.765.78c0 .43.343.779.765.779h3.188a.772.772 0 0 0 .765-.78c0-.43-.342-.78-.765-.78ZM9.968 23.223c0-.43-.342-.779-.765-.779H1.397a.772.772 0 0 0-.765.78c0 .43.343.779.765.779h7.806a.772.772 0 0 0 .765-.78ZM33.231 11.134a.772.772 0 0 0 .765-.78V9.166c0-.43-.342-.78-.765-.78a.772.772 0 0 0-.765.78v1.19c0 .43.343.78.765.78ZM41.644 11.935a.756.756 0 0 0-1.082 0l-.826.841a.79.79 0 0 0 0 1.102.755.755 0 0 0 1.082 0l.826-.84a.79.79 0 0 0 0-1.103ZM43.196 19.724a.772.772 0 0 0-.765.78c0 .43.342.78.765.78h1.168a.772.772 0 0 0 .765-.78c0-.43-.343-.78-.765-.78h-1.168ZM40.818 27.13a.756.756 0 0 0-1.082 0 .79.79 0 0 0 0 1.101l.826.841a.756.756 0 0 0 1.082 0 .79.79 0 0 0 0-1.102l-.826-.84ZM32.466 30.653v1.19c0 .43.343.779.765.779a.772.772 0 0 0 .765-.78v-1.19c0-.43-.342-.779-.765-.779a.772.772 0 0 0-.765.78ZM25.644 27.13l-.826.84a.79.79 0 0 0 0 1.103.755.755 0 0 0 1.082 0l.826-.842a.79.79 0 0 0 0-1.102.756.756 0 0 0-1.082 0ZM22.099 19.724a.772.772 0 0 0-.765.78c0 .43.342.78.765.78h1.168a.772.772 0 0 0 .765-.78c0-.43-.343-.78-.765-.78h-1.168ZM26.726 12.776l-.825-.841a.755.755 0 0 0-1.082 0 .79.79 0 0 0 0 1.102l.825.841a.755.755 0 0 0 1.082 0 .79.79 0 0 0 0-1.102ZM37.346 20.504c0-.43-.343-.78-.765-.78h-2.585v-5.786c0-.43-.342-.78-.765-.78a.772.772 0 0 0-.765.78v6.566c0 .43.343.78.765.78h3.35a.772.772 0 0 0 .765-.78Z" fill="#ED8B00"/><path d="M47.74 20.375a.774.774 0 0 0 .718-.825C47.97 11.372 41.283 4.966 33.23 4.966c-8.412 0-15.255 6.97-15.255 15.538 0 8.568 6.843 15.538 15.255 15.538 7.537 0 13.967-5.624 15.086-13.213a.777.777 0 0 0-.643-.886.768.768 0 0 0-.87.655c-1.005 6.818-6.786 11.886-13.573 11.886-7.568 0-13.725-6.272-13.725-13.98s6.157-13.98 13.725-13.98c7.244 0 13.261 5.763 13.7 13.12a.77.77 0 0 0 .81.731Z" fill="#ED8B00"/><path d="M33.231.504c-2.691 0-5.328.568-7.755 1.632h-13.5a.772.772 0 0 0-.766.78c0 .43.343.779.765.779h10.622a19.71 19.71 0 0 0-3.924 3.388.79.79 0 0 0 .054 1.1.755.755 0 0 0 1.08-.054c3.428-3.855 8.321-6.067 13.424-6.067 9.984 0 18.106 8.273 18.106 18.442 0 10.168-8.122 18.441-18.106 18.441-9.984 0-18.106-8.273-18.106-18.441 0-3.561.999-7.017 2.888-9.995a.788.788 0 0 0-.227-1.078.757.757 0 0 0-1.058.232 20.197 20.197 0 0 0-3.133 10.84c0 7.043 3.592 13.245 9.007 16.81H11.975a.772.772 0 0 0-.765.78c0 .43.343.778.765.778h13.49a19.22 19.22 0 0 0 7.766 1.633c10.828 0 19.637-8.972 19.637-20s-8.81-20-19.637-20Z" fill="#ED8B00"/></svg>