<svg width="44" height="57" fill="none" xmlns="http://www.w3.org/2000/svg"><g clip-path="url('#clip0_135_392')" fill="#ED8B00"><path d="M22.329.075c1.822.655 3.64 1.32 5.466 1.962 4.73 1.664 9.462 3.318 14.192 4.977.938.33 1.146.622 1.146 1.61-.001 4.903.002 9.807-.008 14.71-.008 3.465-.16 6.924-.663 10.357-.856 5.856-3.288 10.86-7.919 14.73-2.809 2.348-5.893 4.26-9.09 6.014-.915.501-1.852.96-2.773 1.45-.418.22-.832.268-1.26.049-4.043-2.074-8.008-4.265-11.542-7.16-3.859-3.162-6.487-7.08-7.69-11.926-.602-2.431-1.034-4.898-1.081-7.393C.973 22.44.936 15.422.867 8.405c-.007-.757.269-1.08 1.092-1.369C8.364 4.787 14.77 2.541 21.173.291c.17-.06.33-.143.494-.216h.662ZM3.204 19.425l-.148.007c.186 4.056.334 8.116.574 12.17.125 2.093.582 4.144 1.22 6.147 1.345 4.225 4.049 7.453 7.546 10.094 2.9 2.19 6.068 3.944 9.298 5.592.17.086.465.07.644-.018a52.083 52.083 0 0 0 2.432-1.269c3.678-2.032 7.248-4.212 10.168-7.29 2.064-2.176 3.484-4.713 4.342-7.567 1.022-3.398 1.36-6.898 1.411-10.418.084-5.776.067-11.555.11-17.331.004-.391-.15-.524-.487-.642-5.975-2.088-11.945-4.192-17.921-6.276a1.28 1.28 0 0 0-.78-.005C15.637 4.704 9.668 6.807 3.693 8.893c-.37.128-.503.292-.5.69.017 3.28.01 6.56.01 9.841v.001Z"/><path d="M18.508 32.398c.194-.266.293-.448.433-.589 4.949-4.924 9.9-9.848 14.86-14.76.249-.246.573-.456.901-.572.435-.154.829.037 1.112.392.3.377.358.803.123 1.227-.122.218-.302.412-.481.59a35746.235 35746.235 0 0 1-15.868 15.77c-.831.827-1.398.823-2.239-.01-2.943-2.924-5.887-5.848-8.827-8.774a2.877 2.877 0 0 1-.449-.547c-.26-.437-.169-1.005.186-1.36a1.162 1.162 0 0 1 1.413-.162c.199.125.375.292.543.457 2.595 2.575 5.188 5.152 7.779 7.73.142.142.26.307.514.607v.001Z"/></g><defs><clipPath id="clip0_135_392"><path fill="#fff" transform="translate(.868 .075)" d="M0 0h42.264v56H0z"/></clipPath></defs></svg>