<svg width="43" height="41" fill="none" xmlns="http://www.w3.org/2000/svg"><path d="M20.094 1.222a1.289 1.289 0 0 1 2.31 0l5.027 10.182a3.244 3.244 0 0 0 2.442 1.774l11.238 1.634a1.289 1.289 0 0 1 .714 2.198l-8.13 7.926a3.245 3.245 0 0 0-.934 2.872l1.918 11.19a1.288 1.288 0 0 1-1.869 1.358l-10.05-5.283a3.244 3.244 0 0 0-3.02 0L9.69 40.356a1.289 1.289 0 0 1-1.87-1.359l1.92-11.189a3.245 3.245 0 0 0-.934-2.872L.676 17.01a1.289 1.289 0 0 1 .714-2.198l11.236-1.633a3.245 3.245 0 0 0 2.443-1.775l5.025-10.182Z" fill="#ED8B00"/></svg>